<?xml version="1.0" encoding="UTF-8" standalone="no"?>
<!DOCTYPE svg PUBLIC "-//W3C//DTD SVG 1.1//EN"
 "http://www.w3.org/Graphics/SVG/1.1/DTD/svg11.dtd">
<!-- Generated by graphviz version 2.47.2 (20210527.1257)
 -->
<!-- Title: snakemake_dag Pages: 1 -->
<svg width="246pt" height="476pt"
 viewBox="0.00 0.00 245.50 476.00" xmlns="http://www.w3.org/2000/svg" xmlns:xlink="http://www.w3.org/1999/xlink">
<g id="graph0" class="graph" transform="scale(1 1) rotate(0) translate(4 472)">
<title>snakemake_dag</title>
<polygon fill="white" stroke="transparent" points="-4,4 -4,-472 241.5,-472 241.5,4 -4,4"/>
<!-- 0 -->
<g id="node1" class="node">
<title>0</title>
<path fill="none" stroke="#566bd8" stroke-width="2" d="M149,-36C149,-36 119,-36 119,-36 113,-36 107,-30 107,-24 107,-24 107,-12 107,-12 107,-6 113,0 119,0 119,0 149,0 149,0 155,0 161,-6 161,-12 161,-12 161,-24 161,-24 161,-30 155,-36 149,-36"/>
<text text-anchor="middle" x="134" y="-15.5" font-family="sans" font-size="10.00">all</text>
</g>
<!-- 1 -->
<g id="node2" class="node">
<title>1</title>
<path fill="none" stroke="#88d856" stroke-width="2" d="M160.5,-108C160.5,-108 107.5,-108 107.5,-108 101.5,-108 95.5,-102 95.5,-96 95.5,-96 95.5,-84 95.5,-84 95.5,-78 101.5,-72 107.5,-72 107.5,-72 160.5,-72 160.5,-72 166.5,-72 172.5,-78 172.5,-84 172.5,-84 172.5,-96 172.5,-96 172.5,-102 166.5,-108 160.5,-108"/>
<text text-anchor="middle" x="134" y="-87.5" font-family="sans" font-size="10.00">annotate_sv</text>
</g>
<!-- 1&#45;&gt;0 -->
<g id="edge1" class="edge">
<title>1&#45;&gt;0</title>
<path fill="none" stroke="grey" stroke-width="2" d="M134,-71.7C134,-63.98 134,-54.71 134,-46.11"/>
<polygon fill="grey" stroke="grey" stroke-width="2" points="137.5,-46.1 134,-36.1 130.5,-46.1 137.5,-46.1"/>
</g>
<!-- 2 -->
<g id="node3" class="node">
<title>2</title>
<path fill="none" stroke="#5692d8" stroke-width="2" d="M169.5,-180C169.5,-180 98.5,-180 98.5,-180 92.5,-180 86.5,-174 86.5,-168 86.5,-168 86.5,-156 86.5,-156 86.5,-150 92.5,-144 98.5,-144 98.5,-144 169.5,-144 169.5,-144 175.5,-144 181.5,-150 181.5,-156 181.5,-156 181.5,-168 181.5,-168 181.5,-174 175.5,-180 169.5,-180"/>
<text text-anchor="middle" x="134" y="-159.5" font-family="sans" font-size="10.00">combine_scores</text>
</g>
<!-- 2&#45;&gt;1 -->
<g id="edge2" class="edge">
<title>2&#45;&gt;1</title>
<path fill="none" stroke="grey" stroke-width="2" d="M134,-143.7C134,-135.98 134,-126.71 134,-118.11"/>
<polygon fill="grey" stroke="grey" stroke-width="2" points="137.5,-118.1 134,-108.1 130.5,-118.1 137.5,-118.1"/>
</g>
<!-- 3 -->
<g id="node4" class="node">
<title>3</title>
<path fill="none" stroke="#78d856" stroke-width="2" d="M163,-324C163,-324 105,-324 105,-324 99,-324 93,-318 93,-312 93,-312 93,-300 93,-300 93,-294 99,-288 105,-288 105,-288 163,-288 163,-288 169,-288 175,-294 175,-300 175,-300 175,-312 175,-312 175,-318 169,-324 163,-324"/>
<text text-anchor="middle" x="134" y="-303.5" font-family="sans" font-size="10.00">split_by_type</text>
</g>
<!-- 6 -->
<g id="node7" class="node">
<title>6</title>
<path fill="none" stroke="#5663d8" stroke-width="2" d="M74,-252C74,-252 12,-252 12,-252 6,-252 0,-246 0,-240 0,-240 0,-228 0,-228 0,-222 6,-216 12,-216 12,-216 74,-216 74,-216 80,-216 86,-222 86,-228 86,-228 86,-240 86,-240 86,-246 80,-252 74,-252"/>
<text text-anchor="middle" x="43" y="-231.5" font-family="sans" font-size="10.00">tada_combine</text>
</g>
<!-- 3&#45;&gt;6 -->
<g id="edge8" class="edge">
<title>3&#45;&gt;6</title>
<path fill="none" stroke="grey" stroke-width="2" d="M111.51,-287.7C100.04,-278.88 85.94,-268.03 73.52,-258.47"/>
<polygon fill="grey" stroke="grey" stroke-width="2" points="75.3,-255.43 65.24,-252.1 71.03,-260.98 75.3,-255.43"/>
</g>
<!-- 7 -->
<g id="node8" class="node">
<title>7</title>
<path fill="none" stroke="#56b9d8" stroke-width="2" d="M152,-252C152,-252 116,-252 116,-252 110,-252 104,-246 104,-240 104,-240 104,-228 104,-228 104,-222 110,-216 116,-216 116,-216 152,-216 152,-216 158,-216 164,-222 164,-228 164,-228 164,-240 164,-240 164,-246 158,-252 152,-252"/>
<text text-anchor="middle" x="134" y="-231.5" font-family="sans" font-size="10.00">strvctvre</text>
</g>
<!-- 3&#45;&gt;7 -->
<g id="edge9" class="edge">
<title>3&#45;&gt;7</title>
<path fill="none" stroke="grey" stroke-width="2" d="M134,-287.7C134,-279.98 134,-270.71 134,-262.11"/>
<polygon fill="grey" stroke="grey" stroke-width="2" points="137.5,-262.1 134,-252.1 130.5,-262.1 137.5,-262.1"/>
</g>
<!-- 8 -->
<g id="node9" class="node">
<title>8</title>
<path fill="none" stroke="#565bd8" stroke-width="2" d="M225.5,-252C225.5,-252 194.5,-252 194.5,-252 188.5,-252 182.5,-246 182.5,-240 182.5,-240 182.5,-228 182.5,-228 182.5,-222 188.5,-216 194.5,-216 194.5,-216 225.5,-216 225.5,-216 231.5,-216 237.5,-222 237.5,-228 237.5,-228 237.5,-240 237.5,-240 237.5,-246 231.5,-252 225.5,-252"/>
<text text-anchor="middle" x="210" y="-231.5" font-family="sans" font-size="10.00">cadd&#45;sv</text>
</g>
<!-- 3&#45;&gt;8 -->
<g id="edge10" class="edge">
<title>3&#45;&gt;8</title>
<path fill="none" stroke="grey" stroke-width="2" d="M152.79,-287.7C162.17,-279.05 173.68,-268.45 183.91,-259.03"/>
<polygon fill="grey" stroke="grey" stroke-width="2" points="186.45,-261.45 191.43,-252.1 181.7,-256.3 186.45,-261.45"/>
</g>
<!-- 4 -->
<g id="node5" class="node">
<title>4</title>
<path fill="none" stroke="#56c9d8" stroke-width="2" d="M159,-396C159,-396 109,-396 109,-396 103,-396 97,-390 97,-384 97,-384 97,-372 97,-372 97,-366 103,-360 109,-360 109,-360 159,-360 159,-360 165,-360 171,-366 171,-372 171,-372 171,-384 171,-384 171,-390 165,-396 159,-396"/>
<text text-anchor="middle" x="134" y="-375.5" font-family="sans" font-size="10.00">convert_tab</text>
</g>
<!-- 4&#45;&gt;3 -->
<g id="edge6" class="edge">
<title>4&#45;&gt;3</title>
<path fill="none" stroke="grey" stroke-width="2" d="M134,-359.7C134,-351.98 134,-342.71 134,-334.11"/>
<polygon fill="grey" stroke="grey" stroke-width="2" points="137.5,-334.1 134,-324.1 130.5,-334.1 137.5,-334.1"/>
</g>
<!-- 5 -->
<g id="node6" class="node">
<title>5</title>
<path fill="none" stroke="#56d86b" stroke-width="2" d="M159,-468C159,-468 109,-468 109,-468 103,-468 97,-462 97,-456 97,-456 97,-444 97,-444 97,-438 103,-432 109,-432 109,-432 159,-432 159,-432 165,-432 171,-438 171,-444 171,-444 171,-456 171,-456 171,-462 165,-468 159,-468"/>
<text text-anchor="middle" x="134" y="-447.5" font-family="sans" font-size="10.00">convert_vcf</text>
</g>
<!-- 5&#45;&gt;4 -->
<g id="edge7" class="edge">
<title>5&#45;&gt;4</title>
<path fill="none" stroke="grey" stroke-width="2" d="M134,-431.7C134,-423.98 134,-414.71 134,-406.11"/>
<polygon fill="grey" stroke="grey" stroke-width="2" points="137.5,-406.1 134,-396.1 130.5,-406.1 137.5,-406.1"/>
</g>
<!-- 6&#45;&gt;2 -->
<g id="edge3" class="edge">
<title>6&#45;&gt;2</title>
<path fill="none" stroke="grey" stroke-width="2" d="M65.49,-215.7C76.96,-206.88 91.06,-196.03 103.48,-186.47"/>
<polygon fill="grey" stroke="grey" stroke-width="2" points="105.97,-188.98 111.76,-180.1 101.7,-183.43 105.97,-188.98"/>
</g>
<!-- 7&#45;&gt;2 -->
<g id="edge4" class="edge">
<title>7&#45;&gt;2</title>
<path fill="none" stroke="grey" stroke-width="2" d="M134,-215.7C134,-207.98 134,-198.71 134,-190.11"/>
<polygon fill="grey" stroke="grey" stroke-width="2" points="137.5,-190.1 134,-180.1 130.5,-190.1 137.5,-190.1"/>
</g>
<!-- 8&#45;&gt;2 -->
<g id="edge5" class="edge">
<title>8&#45;&gt;2</title>
<path fill="none" stroke="grey" stroke-width="2" d="M191.21,-215.7C181.83,-207.05 170.32,-196.45 160.09,-187.03"/>
<polygon fill="grey" stroke="grey" stroke-width="2" points="162.3,-184.3 152.57,-180.1 157.55,-189.45 162.3,-184.3"/>
</g>
</g>
</svg>
